<svg width="64" height="64" viewBox="0 0 64 64" fill="none" xmlns="http://www.w3.org/2000/svg">
  <rect x="6" y="38" width="8" height="18" rx="2" fill="none" stroke="#46a6ff" stroke-width="1.5"/>
  <rect x="18" y="28" width="10" height="28" rx="2" fill="none" stroke="#46a6ff" stroke-width="1.5"/>
  <rect x="30" y="20" width="8" height="36" rx="2" fill="none" stroke="#46a6ff" stroke-width="1.5"/>
  <rect x="40" y="36" width="7" height="20" rx="2" fill="none" stroke="#46a6ff" stroke-width="1.5"/>
  <rect x="49" y="44" width="5" height="12" rx="1.5" fill="none" stroke="#46a6ff" stroke-width="1.5"/>
  <path d="M6 56 L58 56" stroke="#46a6ff" stroke-width="2" stroke-linecap="round"/>
  <path d="M10 38 L10 32 M22 28 L22 20 M34 20 L34 12 M44 36 L44 30" stroke="#46a6ff" stroke-width="1" stroke-linecap="round" opacity="0.5"/>
  <rect x="24" y="40" width="2" height="4" fill="none" stroke="#46a6ff" stroke-width="0.5" opacity="0.3"/>
  <rect x="32" y="28" width="2" height="6" fill="none" stroke="#46a6ff" stroke-width="0.5" opacity="0.3"/>
  <rect x="42" y="44" width="1.5" height="4" fill="none" stroke="#46a6ff" stroke-width="0.5" opacity="0.3"/>
  <ellipse cx="20" cy="60" rx="2" ry="1" fill="none" opacity="0.15"/>
  <ellipse cx="50" cy="60" rx="2" ry="1" fill="none" opacity="0.15"/>
</svg>
